<?xml version="1.0" encoding="utf-8"?>
<!-- Generator: Adobe Illustrator 16.0.3, SVG Export Plug-In . SVG Version: 6.00 Build 0)  -->
<!DOCTYPE svg PUBLIC "-//W3C//DTD SVG 1.1//EN" "http://www.w3.org/Graphics/SVG/1.1/DTD/svg11.dtd">
<svg version="1.1" id="Capa_1" xmlns="http://www.w3.org/2000/svg" xmlns:xlink="http://www.w3.org/1999/xlink" x="0px" y="0px"
	 width="200px" height="200px" viewBox="0 0 200 200" enable-background="new 0 0 200 200" xml:space="preserve">
<g>
	<g>
		<ellipse fill="#0F0F0F" stroke="#000000" stroke-miterlimit="10" cx="17.808" cy="20.126" rx="10.731" ry="10.829"/>
		<ellipse fill="#0F0F0F" stroke="#000000" stroke-miterlimit="10" cx="61.415" cy="20.126" rx="10.731" ry="10.829"/>
		<ellipse fill="#0F0F0F" stroke="#000000" stroke-miterlimit="10" cx="103.882" cy="20.126" rx="10.73" ry="10.829"/>
		<ellipse fill="#0F0F0F" stroke="#000000" stroke-miterlimit="10" cx="144.064" cy="20.126" rx="10.73" ry="10.829"/>
		<ellipse fill="#0F0F0F" stroke="#000000" stroke-miterlimit="10" cx="184.017" cy="20.126" rx="10.731" ry="10.829"/>
	</g>
	<g>
		<ellipse fill="#0F0F0F" stroke="#000000" stroke-miterlimit="10" cx="17.808" cy="58.148" rx="10.731" ry="10.829"/>
		<ellipse fill="#0F0F0F" stroke="#000000" stroke-miterlimit="10" cx="61.415" cy="58.148" rx="10.731" ry="10.829"/>
		<ellipse fill="#0F0F0F" stroke="#000000" stroke-miterlimit="10" cx="103.882" cy="58.148" rx="10.73" ry="10.829"/>
		<ellipse fill="#0F0F0F" stroke="#000000" stroke-miterlimit="10" cx="144.064" cy="58.148" rx="10.73" ry="10.829"/>
		<ellipse fill="#0F0F0F" stroke="#000000" stroke-miterlimit="10" cx="184.017" cy="58.148" rx="10.731" ry="10.829"/>
	</g>
</g>
<g>
	<g>
		<ellipse fill="#0F0F0F" stroke="#000000" stroke-miterlimit="10" cx="17.808" cy="95.655" rx="10.731" ry="10.828"/>
		<ellipse fill="#0F0F0F" stroke="#000000" stroke-miterlimit="10" cx="61.415" cy="95.655" rx="10.731" ry="10.828"/>
		<ellipse fill="#0F0F0F" stroke="#000000" stroke-miterlimit="10" cx="103.882" cy="95.655" rx="10.73" ry="10.828"/>
		<ellipse fill="#0F0F0F" stroke="#000000" stroke-miterlimit="10" cx="144.064" cy="95.655" rx="10.73" ry="10.828"/>
		<ellipse fill="#0F0F0F" stroke="#000000" stroke-miterlimit="10" cx="184.017" cy="95.655" rx="10.731" ry="10.828"/>
	</g>
	<g>
		<ellipse fill="#0F0F0F" stroke="#000000" stroke-miterlimit="10" cx="17.808" cy="133.676" rx="10.731" ry="10.829"/>
		<ellipse fill="#0F0F0F" stroke="#000000" stroke-miterlimit="10" cx="61.415" cy="133.676" rx="10.731" ry="10.829"/>
		<ellipse fill="#0F0F0F" stroke="#000000" stroke-miterlimit="10" cx="103.882" cy="133.676" rx="10.73" ry="10.829"/>
		<ellipse fill="#0F0F0F" stroke="#000000" stroke-miterlimit="10" cx="144.064" cy="133.676" rx="10.73" ry="10.829"/>
		<ellipse fill="#0F0F0F" stroke="#000000" stroke-miterlimit="10" cx="184.017" cy="133.676" rx="10.731" ry="10.829"/>
	</g>
</g>
<g>
	<ellipse fill="#0F0F0F" stroke="#000000" stroke-miterlimit="10" cx="17.808" cy="174.335" rx="10.731" ry="10.827"/>
	<ellipse fill="#0F0F0F" stroke="#000000" stroke-miterlimit="10" cx="61.415" cy="174.335" rx="10.731" ry="10.827"/>
	<ellipse fill="#0F0F0F" stroke="#000000" stroke-miterlimit="10" cx="103.882" cy="174.335" rx="10.73" ry="10.827"/>
	<ellipse fill="#0F0F0F" stroke="#000000" stroke-miterlimit="10" cx="144.064" cy="174.335" rx="10.73" ry="10.827"/>
	<ellipse fill="#0F0F0F" stroke="#000000" stroke-miterlimit="10" cx="184.017" cy="174.335" rx="10.731" ry="10.827"/>
</g>
<g>
</g>
<g>
</g>
<g>
</g>
<g>
</g>
<g>
</g>
</svg>
